<?xml version="1.0" encoding="UTF-8"?>
<svg width="349px" height="71px" viewBox="0 0 349 71" version="1.1" xmlns="http://www.w3.org/2000/svg" xmlns:xlink="http://www.w3.org/1999/xlink">
    <title>CWlogo</title>
    <g id="Page-1" stroke="none" stroke-width="1" fill="none" fill-rule="evenodd">
        <g id="HOME" transform="translate(-160.000000, -3005.000000)">
            <g id="CWlogo" transform="translate(160.000000, 3005.000000)">
                <path d="M0,35.434171 C0,24.2281896 8.5540047,16.283864 20.2040712,16.283864 C26.973755,16.283864 32.4313581,18.7566733 36,23.2285071 L29.3876164,29.2262617 C27.078735,26.4377094 24.2446137,24.9121291 20.7289714,24.9121291 C14.6938082,24.9121291 10.4956258,29.121014 10.4956258,35.434171 C10.4956258,41.7480092 14.6938082,45.9565535 20.7289714,45.9565535 C24.2446137,45.9565535 27.078735,44.4309732 29.3876164,41.642421 L36,47.6401756 C32.4313581,52.1123499 26.973755,54.5851592 20.2040712,54.5851592 C8.5540047,54.5851592 0,46.6408337 0,35.434171" id="Fill-1" fill="#FFFFFF"></path>
                <polyline id="Fill-2" fill="#FFFFFF" points="58.7408984 40.3914934 58.7408984 53.5903204 48.2060554 53.5903204 48.2060554 40.2342145 34 16.7812835 45.1200738 16.7812835 53.9522708 31.3997052 62.7844677 16.7812835 73 16.7812835 58.7408984 40.3914934"></polyline>
                <path d="M98.8396129,42.3370531 C98.8396129,39.8131021 96.9205914,38.6038933 93.2958113,38.6038933 L84.4471241,38.6038933 L84.4471241,46.0708937 L93.2958113,46.0708937 C96.9205914,46.0708937 98.8396129,44.8613445 98.8396129,42.3370531 Z M84.4471241,24.3010505 L84.4471241,31.3997052 L91.6966843,31.3997052 C95.2148329,31.3997052 97.0272229,30.1904965 97.0272229,27.8241647 C97.0272229,25.5102593 95.2148329,24.3010505 91.6966843,24.3010505 L84.4471241,24.3010505 Z M109.5,43.494176 C109.5,49.8568202 104.169806,53.5903204 94.1488632,53.5903204 L74,53.5903204 L74,16.7812835 L93.0825484,16.7812835 C102.890574,16.7812835 107.68761,20.7251696 107.68761,26.4042296 C107.68761,29.9273438 105.875565,32.7672141 102.677311,34.3971949 C106.888392,35.8692159 109.5,39.0246653 109.5,43.494176 L109.5,43.494176 Z" id="Fill-3" fill="#FFFFFF"></path>
                <polyline id="Fill-4" fill="#FFFFFF" points="142 45.5449288 142 53.5903204 112 53.5903204 112 16.7812835 141.306063 16.7812835 141.306063 24.8266751 122.462625 24.8266751 122.462625 31.0317 139.063899 31.0317 139.063899 38.8142793 122.462625 38.8142793 122.462625 45.5449288 142 45.5449288"></polyline>
                <path d="M160.97433,24.9846348 L155.090665,24.9846348 L155.090665,35.7643634 L160.97433,35.7643634 C165.360328,35.7643634 167.553327,33.7660369 167.553327,30.400542 C167.553327,26.9826208 165.360328,24.9846348 160.97433,24.9846348 Z M160.867329,43.809755 L155.090665,43.809755 L155.090665,53.5903204 L144.5,53.5903204 L144.5,16.7812835 L161.615989,16.7812835 C171.832325,16.7812835 178.25134,21.9871451 178.25134,30.400542 C178.25134,35.8167897 175.576664,39.8131021 170.92299,42.0218145 L179,53.5903204 L167.660328,53.5903204 L160.867329,43.809755 L160.867329,43.809755 Z" id="Fill-5" fill="#FFFFFF"></path>
                <polyline id="Fill-6" fill="#FFEC26" points="242.5 16.7812835 230.467965 53.5903204 219.231341 53.5903204 212.128583 31.1896597 204.707731 53.5903204 193.471106 53.5903204 183.5 23.0850332 185.557497 16.7812835 192.252255 16.7812835 199.725609 40.2866408 207.570246 16.7812835 217.21708 16.7812835 224.690777 40.4966864 232.482226 16.7812835 242.5 16.7812835"></polyline>
                <polyline id="Fill-7" fill="#FFEC26" points="274.5 45.5449288 274.5 53.5903204 244.5 53.5903204 244.5 16.7812835 273.806071 16.7812835 273.806071 24.8266751 254.962159 24.8266751 254.962159 31.0317 271.563933 31.0317 271.563933 38.8142793 254.962159 38.8142793 254.962159 45.5449288 274.5 45.5449288"></polyline>
                <polyline id="Fill-8" fill="#FFEC26" points="308 45.5449288 308 53.5903204 278 53.5903204 278 16.7812835 307.306063 16.7812835 307.306063 24.8266751 288.462279 24.8266751 288.462279 31.0317 305.063899 31.0317 305.063899 38.8142793 288.462279 38.8142793 288.462279 45.5449288 308 45.5449288"></polyline>
                <polyline id="Fill-9" fill="#FFEC26" points="324.771781 40.2342145 320.860438 44.3881463 320.860438 53.5903204 310.5 53.5903204 310.5 16.7812835 320.860438 16.7812835 320.860438 32.0832895 335.184917 16.7812835 346.706097 16.7812835 331.590452 33.0824527 347.5 53.5903204 335.343698 53.5903204 324.771781 40.2342145"></polyline>
                <path d="M186.605912,67.2975738 C186.605912,66.6726321 186.203446,66.309975 185.425071,66.309975 L184.387132,66.309975 L184.387132,68.2855018 L185.425071,68.2855018 C186.203446,68.2855018 186.605912,67.9231738 186.605912,67.2975738 Z M187.5,67.2975738 C187.5,68.3921269 186.721941,69.0670903 185.465855,69.0670903 L184.387132,69.0670903 L184.387132,70.5025806 L183.5,70.5025806 L183.5,65.5283864 L185.465855,65.5283864 C186.721941,65.5283864 187.5,66.1964389 187.5,67.2975738 L187.5,67.2975738 Z" id="Fill-10" fill="#FFFFFF"></path>
                <path d="M191.122096,66.309975 L189.977928,66.309975 L189.977928,68.2927418 L191.122096,68.2927418 C191.979786,68.2927418 192.423792,67.9231738 192.423792,67.2975738 C192.423792,66.6726321 191.979786,66.309975 191.122096,66.309975 Z M192.446097,70.5025806 L191.370586,69.0456995 C191.302625,69.0526104 191.235362,69.0526104 191.167054,69.0526104 L189.977928,69.0526104 L189.977928,70.5025806 L189,70.5025806 L189,65.5283864 L191.167054,65.5283864 C192.551696,65.5283864 193.409387,66.1964389 193.409387,67.2975738 C193.409387,68.0508607 193.00302,68.6053772 192.28822,68.86832 L193.5,70.5025806 L192.446097,70.5025806 L192.446097,70.5025806 Z" id="Fill-11" fill="#FFFFFF"></path>
                <polyline id="Fill-12" fill="#FFFFFF" points="198.5 69.7279029 198.5 70.5025806 195 70.5025806 195 65.5283864 198.406757 65.5283864 198.406757 66.3030641 195.866664 66.3030641 195.866664 67.5963875 198.120236 67.5963875 198.120236 68.3565852 195.866664 68.3565852 195.866664 69.7279029 198.5 69.7279029"></polyline>
                <path d="M200,70.3615395 L200.321511,69.5939086 C200.722241,69.9360165 201.359297,70.1788708 201.975141,70.1788708 C202.755055,70.1788708 203.083858,69.8828701 203.083858,69.4876159 C203.083858,68.3402172 200.106729,69.0923617 200.106729,67.1164425 C200.106729,66.2580053 200.750746,65.5283864 202.12529,65.5283864 C202.725887,65.5283864 203.355983,65.6952168 203.792841,65.9993126 L203.49884,66.7669435 C203.048392,66.4857252 202.554524,66.3491636 202.117998,66.3491636 C201.345045,66.3491636 201.030494,66.6680419 201.030494,67.0706874 C201.030494,68.2033036 204,67.4659416 204,69.4189831 C204,70.2700292 203.348691,71 201.975141,71 C201.194896,71 200.414982,70.7413073 200,70.3615395" id="Fill-13" fill="#FFFFFF"></path>
                <polyline id="Fill-14" fill="#FFFFFF" points="209 69.7279029 209 70.5025806 205.5 70.5025806 205.5 65.5283864 208.906448 65.5283864 208.906448 66.3030641 206.366664 66.3030641 206.366664 67.5963875 208.61931 67.5963875 208.61931 68.3565852 206.366664 68.3565852 206.366664 69.7279029 209 69.7279029"></polyline>
                <polyline id="Fill-15" fill="#FFFFFF" points="215 65.5283864 215 70.5025806 214.226599 70.5025806 211.433241 67.1343452 211.433241 70.5025806 210.5 70.5025806 210.5 65.5283864 211.274071 65.5283864 214.066759 68.8966218 214.066759 65.5283864 215 65.5283864"></polyline>
                <polyline id="Fill-16" fill="#FFFFFF" points="218.258032 66.309975 216.5 66.309975 216.5 65.5283864 221 65.5283864 221 66.309975 219.243021 66.309975 219.243021 70.5025806 218.258032 70.5025806 218.258032 66.309975"></polyline>
                <polyline id="Fill-17" fill="#FFFFFF" points="225.5 69.7279029 225.5 70.5025806 222 70.5025806 222 65.5283864 225.406757 65.5283864 225.406757 66.3030641 222.866664 66.3030641 222.866664 67.5963875 225.120236 67.5963875 225.120236 68.3565852 222.866664 68.3565852 222.866664 69.7279029 225.5 69.7279029"></polyline>
                <path d="M229.680074,69.720992 C230.814036,69.720992 231.547459,69.0456995 231.547459,68.0153189 C231.547459,66.9852675 230.814036,66.309975 229.680074,66.309975 L228.4448,66.309975 L228.4448,69.720992 L229.680074,69.720992 Z M227.5,65.5283864 L229.72383,65.5283864 C231.373443,65.5283864 232.5,66.5232252 232.5,68.0153189 C232.5,69.5074127 231.373443,70.5025806 229.72383,70.5025806 L227.5,70.5025806 L227.5,65.5283864 L227.5,65.5283864 Z" id="Fill-18" fill="#FFFFFF"></path>
                <path d="M240.052349,69.0601795 C240.052349,68.5625955 239.669,68.3421052 238.959267,68.3421052 L237.440279,68.3421052 L237.440279,69.7779246 L238.959267,69.7779246 C239.669,69.7779246 240.052349,69.5574343 240.052349,69.0601795 Z M237.440279,66.2533715 L237.440279,67.6246892 L238.771614,67.6246892 C239.422705,67.6246892 239.79198,67.3972881 239.79198,66.9424858 C239.79198,66.4807726 239.422705,66.2533715 238.771614,66.2533715 L237.440279,66.2533715 Z M241,69.1523246 C241,70.0049966 240.320091,70.5025806 239.017574,70.5025806 L236.5,70.5025806 L236.5,65.5283864 L238.873148,65.5283864 C240.08854,65.5283864 240.739631,66.0332103 240.739631,66.8217098 C240.739631,67.3334446 240.479261,67.7099235 240.08854,67.9159338 C240.63106,68.0867315 241,68.5056629 241,69.1523246 L241,69.1523246 Z" id="Fill-19" fill="#FFFFFF"></path>
                <polyline id="Fill-20" fill="#FFFFFF" points="244.482265 68.747544 244.482265 70.5025806 243.525239 70.5025806 243.525239 68.7616949 241.5 65.5283864 242.523874 65.5283864 244.033424 67.9514755 245.55764 65.5283864 246.5 65.5283864 244.482265 68.747544"></polyline>
                <g id="Group-40" transform="translate(166.120441, 0.000000)" fill="#FFEC26">
                    <polyline id="Fill-39" points="32.3585294 0 9.47196078 70.7695083 0 70.7695083 23.2307353 0 32.3585294 0"></polyline>
                </g>
                <path d="M251,66.2745155 C251,63.5006747 253.226768,61.5490311 256.262672,61.5490311 C258.111682,61.5490311 259.56875,62.1936258 260.5,63.3554838 L258.489094,65.073962 C257.935256,64.4068776 257.274871,64.0192609 256.424568,64.0192609 C255.102068,64.0192609 254.211638,64.8953673 254.211638,66.2745155 C254.211638,67.6533331 255.102068,68.5297702 256.424568,68.5297702 C257.274871,68.5297702 257.935256,68.1421535 258.489094,67.4720925 L260.5,69.19024 C259.56875,70.3554053 258.111682,71 256.262672,71 C253.226768,71 251,69.0506715 251,66.2745155" id="Fill-41" fill="#FFFFFF"></path>
                <polyline id="Fill-42" fill="#FFFFFF" points="267.044515 67.2529462 267.044515 70.5025806 263.955485 70.5025806 263.955485 67.2149004 260.5 61.5490311 263.75917 61.5490311 265.63138 64.6438585 267.515336 61.5490311 270.5 61.5490311 267.044515 67.2529462"></polyline>
                <path d="M276.899733,67.6878488 C276.899733,67.2276917 276.56016,66.9849858 275.882687,66.9849858 L274.024733,66.9849858 L274.024733,68.3916958 L275.876337,68.3916958 C276.553476,68.3916958 276.893382,68.1522697 276.893382,67.6878488 L276.899733,67.6878488 Z M274.031083,63.658604 L274.031083,64.9888943 L275.464906,64.9888943 C276.156083,64.9888943 276.468583,64.7589797 276.468583,64.3234212 C276.468583,63.8878626 276.156083,63.658604 275.464906,63.658604 L274.031083,63.658604 Z M280,68.0338686 C280,69.5940736 278.657754,70.5025806 276.14238,70.5025806 L271,70.5025806 L271,61.5490311 L275.876337,61.5490311 C278.392045,61.5490311 279.566176,62.5342856 279.566176,63.8917984 C279.566176,64.7235578 279.132019,65.4139575 278.301805,65.8239336 C279.369652,66.2040634 280,66.9721946 280,68.0338686 L280,68.0338686 Z" id="Fill-43" fill="#FFFFFF"></path>
                <polyline id="Fill-44" fill="#FFFFFF" points="288.5 68.2254095 288.5 70.5025806 280.5 70.5025806 280.5 61.5490311 288.320272 61.5490311 288.320272 63.8248903 283.688934 63.8248903 283.688934 64.873773 287.757125 64.873773 287.757125 67.0486141 283.688934 67.0486141 283.688934 68.2204898 288.5 68.2254095"></polyline>
                <path d="M293.81912,63.8757996 L292.665406,63.8757996 L292.665406,65.9736626 L293.81912,65.9736626 C294.691197,65.9736626 295.106602,65.5765214 295.106602,64.9248951 C295.106602,64.2729407 294.691197,63.8757996 293.81912,63.8757996 Z M293.524072,68.2502555 L292.665406,68.2502555 L292.665406,70.5015967 L289.5,70.5015967 L289.5,61.5490311 L294.020289,61.5490311 C296.635144,61.5490311 298.298831,62.8532676 298.298831,64.9258789 C298.298831,66.2173256 297.654746,67.189682 296.527854,67.7393175 L298.5,70.5025806 L295.120014,70.5025806 L293.524072,68.2502555 L293.524072,68.2502555 Z" id="Fill-45" fill="#FFFFFF"></path>
                <path d="M299,70.0693331 L300.023564,67.8489048 C300.971155,68.3721567 302.042029,68.6564536 303.13535,68.6753185 C304.038047,68.6753185 304.361278,68.4946129 304.361278,68.1841699 C304.361278,67.0483062 299.147802,67.9690442 299.147802,64.5958731 C299.147802,62.9182235 300.616844,61.5490311 303.539388,61.5490311 C304.805375,61.5490311 306.11142,61.8078438 307.094926,62.3367221 L306.138356,64.5442429 C305.210104,64.0928099 304.334342,63.8733816 303.512452,63.8733816 C302.582473,63.8733816 302.286524,64.1315325 302.286524,64.4409825 C302.286524,65.5255471 307.5,64.6216881 307.5,67.9521651 C307.494129,69.6026758 306.025087,71 303.102889,71 C301.526448,71 299.937231,70.6250193 299,70.0693331" id="Fill-46" fill="#FFFFFF"></path>
                <path d="M308,66.2745155 C308,63.5006747 310.226746,61.5490311 313.262401,61.5490311 C315.11168,61.5490311 316.56896,62.1936258 317.5,63.3554838 L315.489147,65.073962 C314.936266,64.4068776 314.274747,64.0192609 313.425359,64.0192609 C312.101974,64.0192609 311.21176,64.8953673 311.21176,66.2745155 C311.21176,67.6533331 312.101974,68.5297702 313.425359,68.5297702 C314.274747,68.5297702 314.936266,68.1421535 315.489147,67.4720925 L317.5,69.19024 C316.568614,70.3554053 315.11168,71 313.262401,71 C310.226746,71 308,69.0506715 308,66.2745155" id="Fill-47" fill="#FFFFFF"></path>
                <path d="M324.836573,66.2745155 C324.836573,64.8679166 323.906936,64.0192609 322.750682,64.0192609 C321.594087,64.0192609 320.663767,64.8695703 320.663767,66.2745155 C320.663767,67.6791301 321.594087,68.5297702 322.750682,68.5297702 C323.906936,68.5297702 324.83078,67.6834296 324.83078,66.2745155 L324.836573,66.2745155 Z M317.5,66.2745155 C317.5,63.5393702 319.719476,61.5490311 322.750682,61.5490311 C325.781546,61.5490311 328,63.5360629 328,66.2745155 C328,69.0132989 325.774731,71 322.744888,71 C319.715387,71 317.5,69.011976 317.5,66.2745155 L317.5,66.2745155 Z" id="Fill-48" fill="#FFFFFF"></path>
                <path d="M336.336303,66.2745155 C336.336303,64.8679166 335.406104,64.0192609 334.249659,64.0192609 C333.093896,64.0192609 332.164038,64.8708932 332.164038,66.2745155 C332.164038,67.6784686 333.094918,68.5297702 334.251022,68.5297702 C335.407126,68.5297702 336.336303,67.6834296 336.336303,66.2745155 Z M329,66.2745155 C329,63.5393702 331.219529,61.5490311 334.249659,61.5490311 C337.280471,61.5490311 339.5,63.5360629 339.5,66.2745155 C339.5,69.0132989 337.280471,71 334.249659,71 C331.219529,71 329,69.011976 329,66.2745155 L329,66.2745155 Z" id="Fill-49" fill="#FFFFFF"></path>
                <path d="M345.916461,64.925266 C345.916461,64.2719282 345.514405,63.8760553 344.670419,63.8760553 L343.55895,63.8760553 L343.55895,65.9741488 L344.673742,65.9741488 C345.517728,65.9741488 345.916461,65.576964 345.916461,64.925266 Z M349,64.925266 C349,66.9974491 347.391775,68.302485 344.866463,68.302485 L343.55895,68.302485 L343.55895,70.5025806 L340.5,70.5025806 L340.5,61.5490311 L344.866463,61.5490311 C347.395098,61.5490311 349,62.852427 349,64.925266 L349,64.925266 Z" id="Fill-50" fill="#FFFFFF"></path>
            </g>
        </g>
    </g>
</svg>