<?xml version="1.0" encoding="utf-8"?>
<!-- Generator: Adobe Illustrator 23.0.3, SVG Export Plug-In . SVG Version: 6.00 Build 0)  -->
<svg version="1.1" id="Layer_1" xmlns="http://www.w3.org/2000/svg" xmlns:xlink="http://www.w3.org/1999/xlink" x="0px" y="0px"
	 viewBox="0 0 200 75" style="enable-background:new 0 0 200 75;" xml:space="preserve">
<style type="text/css">
	.st0{fill:#FFFFFF;}
	.st1{fill:#EE2A7B;}
</style>
<g>
	<g>
		<path class="st0" d="M4.5,56.3V25.2H1V19h3.5v-1c0-1.9,0.1-5,1-7.5c1-2.5,2.9-4.6,6.9-4.6c1.1,0,1.8,0.1,2.4,0.3l0.8,0.2v5.9
			c-0.2-0.1-0.4-0.1-0.6-0.1c-0.5-0.1-1-0.1-1.4-0.1c-1.2,0-1.7,1-2,2.3c-0.1,0.7-0.2,1.4-0.2,2s0,1.2,0,1.6v1h3.5v6.2h-3.5v31.1
			C11.4,56.3,4.5,56.3,4.5,56.3z"/>
		<path class="st0" d="M40.7,42.9v4.3c-0.2,3.6-1.3,6.1-3.8,8.1c-1.2,1-2.9,1.5-5.2,1.5c-4.4,0-6.7-2.5-7.8-4.9
			c-0.6-1.4-1-3.1-1.1-4.9V28.3c0.2-3.6,1.4-6.3,3.8-8.3c1.2-1,2.9-1.5,5.1-1.5c4.4,0,6.7,2.5,7.8,4.8c0.6,1.4,1,3,1.1,4.8v10.8
			H29.3V47c0.1,1.4,0.5,2.5,1.1,3.2c0.3,0.3,0.8,0.5,1.4,0.5c1.3,0,1.9-0.8,2.2-1.8c0.2-0.5,0.3-1.2,0.3-1.9v-4.1H40.7z M29.3,33.5
			h5v-5.3c0-1.4-0.3-2.5-1-3.3c-0.3-0.3-0.9-0.5-1.5-0.5c-1.3,0-1.8,0.9-2.2,1.9c-0.2,0.5-0.3,1.2-0.3,1.9V33.5z"/>
		<path class="st0" d="M67.2,56.3h-6.9v-2.5c-1.2,1.1-2.2,1.9-3.5,2.5c-0.7,0.3-1.4,0.5-2,0.5c-1.9,0-3.2-1.1-4-2.5
			c-0.9-1.4-1.3-3.2-1.3-4.8V25.7c0-1.6,0.4-3.4,1.3-4.8c0.8-1.4,2.1-2.5,4-2.5c1.3,0,2.7,0.8,3.7,1.5c0.6,0.5,1.2,1,1.8,1.5V6.2
			h6.9V56.3z M60.4,27.2c0-1.1-1-2.3-2-2.3s-1.8,1-1.8,2.3v20.9c0,1.3,0.8,2.3,1.8,2.3s2-1,2-2.3V27.2z"/>
		<path class="st1" d="M87.6,28.5c0-0.9,0-2-0.3-2.9c-0.3-0.8-0.9-1.5-2-1.5c-0.9,0-1.4,0.7-1.7,1.5c-0.3,0.8-0.4,2-0.4,2.9
			c0,1.2,0.6,2.4,1.5,3.5c0.8,1.1,1.9,2.2,3,3.2c1.4,1.4,3.1,3.1,4.3,4.9c1.2,1.9,2,4,2,6.5c0,2.4-0.5,4.9-1.9,6.8
			c-1.4,2-3.6,3.4-6.9,3.4c-4.2,0-6.6-1.9-8-4.2s-1.6-5.2-1.6-7.2H82c0,1,0.1,2.5,0.5,3.5c0.5,1.2,1.2,2.1,2.7,2.1
			c2,0,2.4-2.3,2.4-4.5c0-2.3-2.2-4.5-4.3-6.6c-1.6-1.6-3.2-3-4.4-4.8c-1.2-1.8-2.1-3.9-2.1-6.6c0-2.2,0.4-4.7,1.7-6.7
			c1.3-1.9,3.4-3.3,6.7-3.4c4-0.1,6.3,1.4,7.4,3.4c1.2,2,1.4,4.6,1.4,6.7C94,28.5,87.6,28.5,87.6,28.5z"/>
		<path class="st1" d="M109.1,47.7c0,1.4,0.1,3,1.9,3c1.6,0,2-0.8,2-3v-5.2h6.9v3.6c0,4.2-0.8,6.8-2.3,8.5c-1.5,1.6-3.7,2.3-6.6,2.3
			c-2.5,0-4.7-0.7-6.3-2.4c-1.6-1.7-2.5-4.5-2.5-8.7V29.5c0-4.2,1-7,2.5-8.7c1.6-1.7,3.8-2.4,6.3-2.4c2.9,0,5.1,0.6,6.6,2.3
			c1.5,1.6,2.3,4.3,2.3,8.5v2.9H113v-4.5c0-2.3-0.4-3-2-3c-1.8,0-1.9,1.6-1.9,3V47.7z"/>
		<path class="st1" d="M145.7,47.2c-0.2,3.6-1.3,6.1-3.7,8.1c-1.2,1-2.9,1.5-5.2,1.5c-4.4,0-6.6-2.5-7.7-4.9c-0.6-1.4-1-3.1-1.1-4.9
			V28.3c0.2-3.6,1.3-6.3,3.7-8.3c1.2-1,2.9-1.5,5.1-1.5c4.4,0,6.7,2.5,7.8,4.8c0.6,1.4,1,3,1.1,4.8L145.7,47.2L145.7,47.2z
			 M139.3,28.3c0.1-1.4-0.2-2.5-0.9-3.3c-0.3-0.3-0.9-0.5-1.5-0.5c-1.3,0-1.8,0.9-2.1,1.9c-0.2,0.5-0.3,1.2-0.2,1.9V47
			c-0.1,1.4,0.3,2.5,0.9,3.2c0.3,0.3,0.8,0.5,1.4,0.5c1.3,0,1.9-0.8,2.2-1.8c0.2-0.5,0.3-1.2,0.2-1.9L139.3,28.3L139.3,28.3z"/>
		<path class="st1" d="M172.1,47.2c-0.2,3.6-1.3,6.1-3.7,8.1c-1.2,1-2.9,1.5-5.2,1.5c-4.4,0-6.6-2.5-7.7-4.9c-0.6-1.4-1-3.1-1.1-4.9
			V28.3c0.2-3.6,1.3-6.3,3.7-8.3c1.2-1,2.9-1.5,5.1-1.5c4.4,0,6.7,2.5,7.8,4.8c0.6,1.4,1,3,1.1,4.8L172.1,47.2L172.1,47.2z
			 M165.7,28.3c0.1-1.4-0.2-2.5-0.9-3.3c-0.3-0.3-0.9-0.5-1.5-0.5c-1.3,0-1.8,0.9-2.1,1.9c-0.2,0.5-0.3,1.2-0.2,1.9V47
			c-0.1,1.4,0.3,2.5,0.9,3.2c0.3,0.3,0.8,0.5,1.4,0.5c1.3,0,1.9-0.8,2.2-1.8c0.2-0.5,0.3-1.2,0.2-1.9L165.7,28.3L165.7,28.3z"/>
		<path class="st1" d="M181.3,19h6.9v2.5c1.2-1.1,2.2-1.9,3.5-2.5c0.6-0.3,1.3-0.5,1.9-0.5c1.9,0,3.2,1.1,4.1,2.5
			c0.8,1.4,1.2,3.3,1.2,4.8v23.8c0,1.6-0.4,3.4-1.2,4.8c-0.9,1.4-2.2,2.5-4.1,2.5c-1.3,0-2.7-0.8-3.7-1.5c-0.6-0.5-1.2-1-1.8-1.5
			v15.3h-6.9V19H181.3z M188.2,48.1c0,1.1,1,2.3,2,2.3s1.8-1,1.8-2.3V27.2c0-1.3-0.8-2.3-1.8-2.3s-2,1-2,2.3V48.1z"/>
	</g>
</g>
</svg>
