<?xml version="1.0" encoding="utf-8"?>
<!-- Generator: Adobe Illustrator 22.1.0, SVG Export Plug-In . SVG Version: 6.00 Build 0)  -->
<svg version="1.1" id="Layer_1" xmlns="http://www.w3.org/2000/svg" xmlns:xlink="http://www.w3.org/1999/xlink" x="0px" y="0px"
	 viewBox="0 0 218 70" style="enable-background:new 0 0 218 70;" xml:space="preserve">
<style type="text/css">
	.st0{fill:#171717;}
	.st1{fill:#EE2A7B;}
</style>
<g>
	<g>
		<path class="st0" d="M5.4,55.4V21.6H1.6v-6.7h3.8v-1.1c0-2.1,0.1-5.4,1.1-8.1c1-2.7,3.1-5,7.5-5c1.2,0,2,0.1,2.6,0.3l0.9,0.2v6.4
			c-0.2-0.1-0.4-0.1-0.7-0.1c-0.5-0.1-1-0.1-1.6-0.1c-1.3,0-1.9,1.1-2.1,2.5c-0.1,0.7-0.2,1.5-0.2,2.2s0,1.3,0,1.8v1h3.8v6.7h-3.8
			v33.7H5.4z"/>
		<path class="st0" d="M44.6,40.9v4.7c-0.2,3.9-1.4,6.7-4.1,8.8c-1.3,1.1-3.2,1.6-5.6,1.6c-4.8,0-7.3-2.7-8.4-5.3
			c-0.7-1.6-1.1-3.3-1.2-5.3V25c0.2-3.9,1.5-6.8,4.1-9c1.3-1.1,3.1-1.6,5.6-1.6c4.8,0,7.3,2.7,8.4,5.3c0.7,1.6,1.1,3.3,1.2,5.2v11.8
			H32.2v8.8c0.1,1.6,0.5,2.7,1.2,3.5c0.4,0.4,0.9,0.6,1.6,0.6c1.4,0,2.1-0.9,2.4-2c0.2-0.6,0.3-1.3,0.3-2.1v-4.4H44.6z M32.2,30.7
			h5.4V25c0-1.6-0.3-2.7-1-3.6c-0.4-0.4-1-0.6-1.6-0.6c-1.4,0-2,1-2.4,2.1c-0.2,0.6-0.3,1.3-0.4,2.1V30.7z"/>
		<path class="st0" d="M73.4,55.4H66v-2.7c-1.3,1.2-2.4,2.1-3.8,2.7C61.5,55.8,60.7,56,60,56c-2.1,0-3.5-1.2-4.4-2.7
			c-1-1.5-1.4-3.5-1.4-5.2V22.2c0-1.7,0.4-3.7,1.4-5.3c0.9-1.5,2.3-2.7,4.4-2.7c1.4,0,2.9,0.8,4,1.6c0.7,0.5,1.3,1,1.9,1.6V1h7.5
			V55.4z M66,23.8c0-1.2-1.1-2.4-2.2-2.4c-1.1,0-2,1-2,2.4v22.7c0,1.4,0.9,2.4,2,2.4c1.1,0,2.2-1,2.2-2.4V23.8z"/>
		<path class="st1" d="M95.6,25.3c0-1,0-2.1-0.3-3.1c-0.4-0.9-1-1.6-2.1-1.6c-1,0-1.6,0.7-1.9,1.6c-0.4,0.9-0.4,2.1-0.4,3.1
			c0,1.3,0.7,2.6,1.6,3.8c0.9,1.2,2.1,2.4,3.3,3.5c1.6,1.6,3.4,3.3,4.7,5.3c1.3,2.1,2.2,4.4,2.2,7c0,2.6-0.6,5.3-2.1,7.4
			C99,54.4,96.6,56,93.1,56c-4.5,0-7.2-2.1-8.7-4.6c-1.5-2.5-1.8-5.6-1.8-7.8h7c0,1.1,0.1,2.7,0.6,3.8c0.5,1.3,1.3,2.3,2.9,2.3
			c2.1,0,2.6-2.5,2.6-4.9c0-2.4-2.4-4.9-4.7-7.2c-1.8-1.7-3.5-3.3-4.8-5.3c-1.3-2-2.3-4.2-2.3-7.2c0-2.4,0.4-5.1,1.9-7.3
			c1.4-2.1,3.7-3.6,7.3-3.7c4.4-0.1,6.8,1.6,8.1,3.7c1.3,2.1,1.5,5,1.5,7.3H95.6z"/>
		<path class="st1" d="M118.8,46.1c0,1.5,0.1,3.3,2.1,3.3c1.7,0,2.1-0.8,2.1-3.3v-5.6h7.5v3.9c0,4.5-0.8,7.4-2.4,9.2
			c-1.6,1.8-4,2.4-7.2,2.4c-2.7,0-5.1-0.7-6.8-2.6c-1.7-1.9-2.7-4.9-2.7-9.4V26.3c0-4.5,1-7.5,2.7-9.4c1.7-1.9,4.1-2.6,6.8-2.6
			c3.2,0,5.6,0.7,7.2,2.4c1.6,1.8,2.4,4.7,2.4,9.2v3.2H123v-4.9c0-2.4-0.4-3.3-2.1-3.3c-2,0-2.1,1.8-2.1,3.3V46.1z"/>
		<path class="st1" d="M158.6,45.5c-0.2,3.9-1.4,6.7-4,8.8c-1.3,1.1-3.2,1.6-5.6,1.6c-4.8,0-7.2-2.7-8.4-5.3
			c-0.7-1.6-1.1-3.3-1.2-5.3V25c0.2-3.9,1.4-6.8,4-9c1.3-1.1,3.1-1.6,5.6-1.6c4.8,0,7.3,2.7,8.4,5.3c0.7,1.6,1.1,3.3,1.2,5.2V45.5z
			 M151.6,25c0.1-1.6-0.2-2.7-1-3.6c-0.4-0.4-1-0.6-1.6-0.6c-1.4,0-2,1-2.3,2.1c-0.2,0.6-0.3,1.3-0.2,2.1v20.4
			c-0.1,1.6,0.3,2.7,1,3.5c0.4,0.4,0.9,0.6,1.6,0.6c1.4,0,2.1-0.9,2.4-2c0.2-0.6,0.3-1.3,0.2-2.1V25z"/>
		<path class="st1" d="M187.3,45.5c-0.2,3.9-1.4,6.7-4,8.8c-1.3,1.1-3.2,1.6-5.6,1.6c-4.8,0-7.2-2.7-8.4-5.3
			c-0.7-1.6-1.1-3.3-1.2-5.3V25c0.2-3.9,1.4-6.8,4-9c1.3-1.1,3.1-1.6,5.6-1.6c4.8,0,7.3,2.7,8.4,5.3c0.7,1.6,1.1,3.3,1.2,5.2V45.5z
			 M180.2,25c0.1-1.6-0.2-2.7-1-3.6c-0.4-0.4-1-0.6-1.6-0.6c-1.4,0-2,1-2.3,2.1c-0.2,0.6-0.3,1.3-0.2,2.1v20.4
			c-0.1,1.6,0.3,2.7,1,3.5c0.4,0.4,0.9,0.6,1.6,0.6c1.4,0,2.1-0.9,2.4-2c0.2-0.6,0.3-1.3,0.2-2.1V25z"/>
		<path class="st1" d="M197.3,14.9h7.5v2.7c1.3-1.2,2.4-2.1,3.8-2.7c0.7-0.4,1.4-0.5,2.1-0.5c2.1,0,3.5,1.2,4.4,2.7
			c0.9,1.6,1.3,3.6,1.3,5.3v25.8c0,1.7-0.4,3.7-1.3,5.2c-1,1.6-2.4,2.7-4.4,2.7c-1.4,0-2.9-0.8-4-1.6c-0.7-0.5-1.3-1-1.9-1.6v16.6
			h-7.5V14.9z M204.7,46.5c0,1.2,1.1,2.4,2.2,2.4c1.1,0,2-1,2-2.4V23.8c0-1.4-0.9-2.4-2-2.4c-1.1,0-2.2,1-2.2,2.4V46.5z"/>
	</g>
</g>
</svg>
